<svg width="512" height="151" viewBox="0 0 512 151" fill="none" xmlns="http://www.w3.org/2000/svg">
<path d="M39.904 150.89C32.508 150.89 25.8 149.199 19.78 145.816C13.76 142.433 8.944 137.904 5.332 132.228C1.77733 126.495 0 120.131 0 113.136C0 107.632 1.23267 102.472 3.698 97.6561C6.22067 92.7827 9.60333 88.6834 13.846 85.3581C10.5207 82.3194 7.79733 78.7361 5.676 74.6081C3.612 70.4227 2.58 65.9507 2.58 61.1921C2.58 54.7134 4.27133 48.8081 7.654 43.4761C11.0367 38.1441 15.5373 33.9014 21.156 30.7481C26.832 27.5947 33.0813 26.0181 39.904 26.0181C46.784 26.0181 53.0333 27.5947 58.652 30.7481C64.2707 33.9014 68.7713 38.1441 72.154 43.4761C75.5367 48.8081 77.228 54.7134 77.228 61.1921C77.228 65.9507 76.196 70.4227 74.132 74.6081C72.1253 78.7361 69.402 82.3194 65.962 85.3581C70.3193 88.6834 73.7307 92.7827 76.196 97.6561C78.7187 102.472 79.98 107.632 79.98 113.136C79.98 120.073 78.174 126.409 74.562 132.142C71.0073 137.818 66.1913 142.376 60.114 145.816C54.0367 149.199 47.3 150.89 39.904 150.89ZM39.904 129.906C43.2293 129.906 46.2393 129.161 48.934 127.67C51.6287 126.122 53.7787 124.087 55.384 121.564C56.9893 119.041 57.792 116.232 57.792 113.136C57.792 110.04 56.9893 107.231 55.384 104.708C53.7787 102.185 51.6287 100.179 48.934 98.6881C46.2393 97.1401 43.2293 96.3661 39.904 96.3661C36.636 96.3661 33.6547 97.1401 30.96 98.6881C28.2653 100.179 26.0867 102.185 24.424 104.708C22.8187 107.231 22.016 110.04 22.016 113.136C22.016 116.232 22.8187 119.041 24.424 121.564C26.0867 124.087 28.2653 126.122 30.96 127.67C33.6547 129.161 36.636 129.906 39.904 129.906ZM39.904 75.3821C42.7133 75.3821 45.2647 74.7514 47.558 73.4901C49.8513 72.1714 51.6573 70.4514 52.976 68.3301C54.352 66.2087 55.04 63.8294 55.04 61.1921C55.04 58.5547 54.352 56.1754 52.976 54.0541C51.6573 51.9327 49.8513 50.2414 47.558 48.9801C45.2647 47.6614 42.7133 47.0021 39.904 47.0021C37.152 47.0021 34.6293 47.6614 32.336 48.9801C30.0427 50.2414 28.208 51.9327 26.832 54.0541C25.456 56.1754 24.768 58.5547 24.768 61.1921C24.768 63.8294 25.456 66.2087 26.832 68.3301C28.208 70.4514 30.0427 72.1714 32.336 73.4901C34.6293 74.7514 37.152 75.3821 39.904 75.3821Z" fill="#977DD2"/>
<path d="M97.1666 148.654V28.2541H141.027C147.391 28.2541 153.124 29.5727 158.227 32.2101C163.387 34.7901 167.457 38.5167 170.439 43.3901C173.477 48.2061 174.997 53.9107 174.997 60.5041C174.997 63.4281 174.567 66.3807 173.707 69.3621C172.847 72.3434 171.528 75.0381 169.751 77.4461C167.973 79.7967 165.68 81.5454 162.871 82.6921C166.597 83.6094 169.636 85.2721 171.987 87.6801C174.337 90.0881 176.172 92.9261 177.491 96.1941C178.809 99.4047 179.698 102.701 180.157 106.084C180.673 109.409 180.931 112.505 180.931 115.372C180.931 121.736 179.354 127.412 176.201 132.4C173.047 137.388 168.805 141.344 163.473 144.268C158.198 147.192 152.35 148.654 145.929 148.654H97.1666ZM118.151 130.68H143.779C147.219 130.68 150.315 129.849 153.067 128.186C155.819 126.523 158.026 124.23 159.689 121.306C161.351 118.382 162.183 115.057 162.183 111.33C162.183 108.119 161.351 105.081 159.689 102.214C158.026 99.3474 155.819 97.0254 153.067 95.2481C150.315 93.4707 147.219 92.5821 143.779 92.5821H118.151V130.68ZM118.151 74.8661H138.619C142.861 74.8661 146.473 73.5474 149.455 70.9101C152.493 68.2727 154.013 64.7754 154.013 60.4181C154.013 55.7741 152.493 52.2767 149.455 49.9261C146.473 47.5181 142.861 46.3141 138.619 46.3141H118.151V74.8661Z" fill="#212121"/>
<path d="M231.421 150.89C223.509 150.89 216.285 148.855 209.749 144.784C203.27 140.713 198.081 135.267 194.183 128.444C190.341 121.564 188.421 113.967 188.421 105.654C188.421 99.3474 189.539 93.4707 191.775 88.0241C194.011 82.5201 197.078 77.7041 200.977 73.5761C204.933 69.3907 209.519 66.1227 214.737 63.7721C219.954 61.4214 225.515 60.2461 231.421 60.2461C239.333 60.2461 246.528 62.2814 253.007 66.3521C259.543 70.4227 264.731 75.8981 268.573 82.7781C272.471 89.6581 274.421 97.2834 274.421 105.654C274.421 111.903 273.303 117.751 271.067 123.198C268.831 128.645 265.735 133.461 261.779 137.646C257.88 141.774 253.322 145.013 248.105 147.364C242.945 149.715 237.383 150.89 231.421 150.89ZM231.421 129.906C235.606 129.906 239.361 128.788 242.687 126.552C246.012 124.316 248.621 121.363 250.513 117.694C252.462 114.025 253.437 110.011 253.437 105.654C253.437 101.182 252.433 97.1114 250.427 93.4421C248.477 89.7154 245.811 86.7627 242.429 84.5841C239.103 82.3481 235.434 81.2301 231.421 81.2301C227.293 81.2301 223.566 82.3481 220.241 84.5841C216.915 86.8201 214.278 89.8014 212.329 93.5281C210.379 97.2547 209.405 101.297 209.405 105.654C209.405 110.183 210.408 114.283 212.415 117.952C214.421 121.621 217.087 124.545 220.413 126.724C223.795 128.845 227.465 129.906 231.421 129.906Z" fill="#212121"/>
<path d="M325.987 150.89C318.075 150.89 310.851 148.855 304.315 144.784C297.836 140.713 292.648 135.267 288.749 128.444C284.908 121.564 282.987 113.967 282.987 105.654C282.987 99.3474 284.105 93.4707 286.341 88.0241C288.577 82.5201 291.644 77.7041 295.543 73.5761C299.499 69.3907 304.086 66.1227 309.303 63.7721C314.52 61.4214 320.082 60.2461 325.987 60.2461C333.899 60.2461 341.094 62.2814 347.573 66.3521C354.109 70.4227 359.298 75.8981 363.139 82.7781C367.038 89.6581 368.987 97.2834 368.987 105.654C368.987 111.903 367.869 117.751 365.633 123.198C363.397 128.645 360.301 133.461 356.345 137.646C352.446 141.774 347.888 145.013 342.671 147.364C337.511 149.715 331.95 150.89 325.987 150.89ZM325.987 129.906C330.172 129.906 333.928 128.788 337.253 126.552C340.578 124.316 343.187 121.363 345.079 117.694C347.028 114.025 348.003 110.011 348.003 105.654C348.003 101.182 347 97.1114 344.993 93.4421C343.044 89.7154 340.378 86.7627 336.995 84.5841C333.67 82.3481 330 81.2301 325.987 81.2301C321.859 81.2301 318.132 82.3481 314.807 84.5841C311.482 86.8201 308.844 89.8014 306.895 93.5281C304.946 97.2547 303.971 101.297 303.971 105.654C303.971 110.183 304.974 114.283 306.981 117.952C308.988 121.621 311.654 124.545 314.979 126.724C318.362 128.845 322.031 129.906 325.987 129.906Z" fill="#212121"/>
<path d="M457.832 148.654H433.666L414.058 114.856L402.018 129.218V148.654H381.034V19.6541H402.018V96.6241L430.484 62.6541H457.918L428.42 97.8281L457.832 148.654Z" fill="#212121"/>
<path d="M445.45 34.4457C443.059 33.065 442.239 30.007 443.62 27.6156L458.12 2.50083C459.501 0.109371 462.559 -0.710004 464.95 0.670708C467.342 2.05142 468.161 5.10937 466.78 7.50083L452.28 32.6156C450.9 35.007 447.842 35.8264 445.45 34.4457Z" fill="#FDC43E"/>
<path d="M465.069 49.9223C463.486 47.6603 464.035 44.5426 466.297 42.9587L490.053 26.325C492.315 24.7411 495.432 25.2908 497.016 27.5528C498.6 29.8149 498.051 32.9326 495.788 34.5165L472.033 51.1502C469.771 52.7341 466.653 52.1843 465.069 49.9223Z" fill="#977DD2"/>
<path d="M472.8 73.4495C472.425 70.7137 474.338 68.1914 477.074 67.8158L505.804 63.871C508.54 63.4953 511.062 65.4086 511.438 68.1444C511.813 70.8801 509.9 73.4024 507.164 73.778L478.434 77.7228C475.698 78.0985 473.176 76.1852 472.8 73.4495Z" fill="#FDC43E"/>
</svg>
